<?xml version="1.0" encoding="UTF-8" standalone="no"?>
<!-- Created with Inkscape (http://www.inkscape.org/) -->

<svg
   xmlns:dc="http://purl.org/dc/elements/1.1/"
   xmlns:cc="http://creativecommons.org/ns#"
   xmlns:rdf="http://www.w3.org/1999/02/22-rdf-syntax-ns#"
   xmlns:svg="http://www.w3.org/2000/svg"
   xmlns="http://www.w3.org/2000/svg"
   xmlns:sodipodi="http://sodipodi.sourceforge.net/DTD/sodipodi-0.dtd"
   xmlns:inkscape="http://www.inkscape.org/namespaces/inkscape"
   width="210mm"
   height="297mm"
   viewBox="0 0 210 297"
   version="1.1"
   id="svg8"
   inkscape:version="0.92.4 (5da689c313, 2019-01-14)"
   sodipodi:docname="efo_banner-vert.svg">
  <defs
     id="defs2" />
  <sodipodi:namedview
     id="base"
     pagecolor="#ffffff"
     bordercolor="#666666"
     borderopacity="1.0"
     inkscape:pageopacity="0.0"
     inkscape:pageshadow="2"
     inkscape:zoom="0.49497475"
     inkscape:cx="829.31679"
     inkscape:cy="596.45527"
     inkscape:document-units="mm"
     inkscape:current-layer="g4838"
     showgrid="false"
     inkscape:window-width="1920"
     inkscape:window-height="1009"
     inkscape:window-x="-8"
     inkscape:window-y="-8"
     inkscape:window-maximized="1" />
  <metadata
     id="metadata5">
    <rdf:RDF>
      <cc:Work
         rdf:about="">
        <dc:format>image/svg+xml</dc:format>
        <dc:type
           rdf:resource="http://purl.org/dc/dcmitype/StillImage" />
        <dc:title></dc:title>
      </cc:Work>
    </rdf:RDF>
  </metadata>
  <g
     inkscape:label="Layer 1"
     inkscape:groupmode="layer"
     id="layer1">
    <g
       id="g860"
       transform="matrix(0.26458333,0,0,0.26458333,-50.570194,112.02203)">
      <g
         id="g4838"
         style="display:inline"
         transform="translate(264.46448,-187.50189)">
        <path
           id="path4795"
           d="m 335.25656,492.53429 c -2.97117,-1.05905 -5.91207,-3.94941 -6.79633,-6.67949 -0.60392,-1.86444 -0.53083,-2.67047 0.51451,-5.6753 0.67012,-1.92623 1.6674,-4.17899 2.21619,-5.00614 0.54879,-0.82714 1.83295,-3.22659 2.85361,-5.33211 1.02073,-2.10552 2.6883,-5.2313 3.70578,-6.94617 2.11412,-3.5632 2.24075,-4.36807 0.86483,-5.49706 -3.1253,-2.56444 -7.56445,-17.17446 -8.11943,-26.72242 -0.0753,-1.2957 -0.34772,-4.1343 -0.60533,-6.308 -0.5141,-4.33756 0.26798,-6.48441 2.63594,-7.23598 1.44565,-0.45882 11.1966,4.63262 11.1966,5.84627 0,0.42926 0.39755,1.11041 0.88344,1.51366 0.48589,0.40326 0.88344,1.41076 0.88344,2.2389 0,0.82813 0.25254,2.3196 0.56121,3.31438 0.30873,0.99478 1.03144,4.12974 1.60615,6.96657 0.57464,2.83684 1.31596,5.07518 1.64731,4.9741 0.72689,-0.22174 8.52769,-10.49735 8.54282,-11.25299 0.009,-0.48022 1.39094,-2.06845 8.19322,-9.42007 2.24069,-2.42164 7.09923,-5.05084 9.35146,-5.06053 0.85852,-0.004 1.57799,0.52135 2.00823,1.4656 0.36868,0.80925 1.92536,2.27667 3.45918,3.26094 2.2858,1.46677 2.83152,2.1552 3.02547,3.81659 0.31939,2.73572 -0.22916,3.59199 -6.13605,9.57872 -2.80196,2.83982 -5.36929,5.88604 -5.70511,6.76938 -0.33582,0.88335 -0.98856,1.60608 -1.45048,1.60608 -0.46192,0 -1.46232,0.98131 -2.22314,2.18068 -0.76087,1.19937 -1.84008,2.85581 -2.39829,3.68098 -0.55827,0.82517 -1.68701,2.69294 -2.50837,4.15061 -3.35252,5.94987 -3.61891,6.40624 -4.8778,8.35661 -3.07,4.75617 -5.97285,9.77729 -7.93726,13.72928 -0.96612,1.94356 -2.26595,4.24988 -2.8886,5.12515 -0.62264,0.87528 -2.19445,3.71398 -3.49292,6.30823 -2.21071,4.41693 -4.55241,7.1527 -6.07121,7.09292 -0.36121,-0.0142 -1.68383,-0.39194 -2.93907,-0.83939 z"
           style="fill:#ff0000;stroke-width:0.58895707"
           inkscape:connector-curvature="0"
           sodipodi:nodetypes="ccccccccccscsccccsccccccsccccccccc"
           inkscape:export-xdpi="96"
           inkscape:export-ydpi="96" />
        <path
           d="m 293.67183,446.24156 c 4.69929,-0.98478 15.17737,-4.67453 16.64163,-5.86018 1.25819,-1.01883 1.25813,-1.01887 -1.13138,-2.23793 -5.50239,-2.80712 -13.7429,-2.8928 -18.1857,-0.18909 -2.33533,1.42119 -4.8983,7.31572 -3.77139,8.67362 0.43948,0.52947 1.26808,0.77959 1.98596,0.59942 0.67748,-0.17005 2.68488,-0.61368 4.46088,-0.98584 z m -25.68589,44.63524 c -0.67865,-0.34256 -1.53382,-1.3065 -1.90033,-2.14209 -0.3665,-0.83559 -1.23003,-2.51575 -1.91888,-3.73369 -0.78001,-1.3791 -1.0891,-2.60102 -0.81935,-3.23926 0.23823,-0.56366 0.5128,-1.5549 0.6101,-2.20275 0.0974,-0.64785 0.59237,-3.11671 1.10005,-5.48636 1.17615,-5.48963 1.19941,-9.74743 0.0583,-10.69434 -0.47553,-0.39465 -0.8249,-0.8909 -0.77631,-1.10278 0.0483,-0.21188 -0.21697,-1.42775 -0.59013,-2.70194 -0.37658,-1.28581 -0.45744,-2.5962 -0.18169,-2.94479 0.27327,-0.34544 0.62211,-2.00011 0.77524,-3.67704 0.20419,-2.23666 0.90741,-4.04113 2.63941,-6.77301 1.29853,-2.04822 2.70078,-3.64568 3.11605,-3.54991 1.39583,0.32192 3.46237,-2.33577 4.08931,-5.2592 1.63076,-7.60392 6.87407,-14.34825 13.94533,-17.93742 4.35775,-2.21189 4.6355,-2.27014 11.62218,-2.43766 5.83804,-0.13998 7.86352,0.0458 10.98593,1.00737 6.32634,1.94836 8.17508,3.32283 10.70936,7.96199 4.35045,7.96396 5.80671,16.15379 4.03183,22.67484 -1.88861,6.93869 -12.61175,12.59145 -30.70086,16.18413 -4.34121,0.8622 -8.88695,1.8242 -10.10168,2.13777 l -2.20859,0.57013 -0.0206,3.3638 c -0.0318,5.23282 -1.51138,12.32129 -3.33043,15.95724 -1.51898,3.03619 -1.84898,3.33623 -4.01098,3.6466 -1.2957,0.186 -3.15092,0.48736 -4.1227,0.6697 -0.97178,0.18233 -2.32214,0.0512 -3.00079,-0.29133 z"
           style="fill:#ff0000;stroke-width:0.58895707"
           id="path4789"
           inkscape:connector-curvature="0"
           sodipodi:nodetypes="cccsccccccccccccccccccscccccccccccc"
           inkscape:export-xdpi="96"
           inkscape:export-ydpi="96" />
        <path
           d="m 27.747481,473.26324 c 3.23926,-0.39164 6.02208,-0.87146 6.18404,-1.06625 0.16197,-0.19479 1.73934,-0.67968 3.50527,-1.07752 4.92441,-1.10941 12.64105,-5.54676 13.76505,-7.91542 1.0797,-2.27531 0.61854,-5.28021 -1.21156,-7.89444 -0.64095,-0.91558 -2.54592,-4.36702 -4.23326,-7.66988 l -3.0679,-6.00518 -2.12388,1.1929 c -1.47717,0.82969 -2.69359,1.08603 -3.99493,0.84191 -1.578,-0.29604 -2.36932,0.0371 -5.05246,2.12724 -8.44293,6.57689 -15.49239,14.99414 -17.95246,21.43574 -1.25814,3.2944 -0.94523,4.46684 1.52124,5.70002 2.4443,1.22208 4.78392,1.28323 12.66085,0.33088 z m -11.19019,17.1991 c -3.9839,-0.30356 -6.03211,-0.78125 -8.2453998,-1.92303 -3.70083,-1.90917 -7.37869001,-5.71809 -9.36323,-9.69689 -3.54034,-7.09802 -1.00222,-19.58979 5.94716,-29.26998 3.48816,-4.85885 9.7364498,-12.12358 10.4302698,-12.12701 0.35323,-0.002 1.93715,-1.34514 3.51982,-2.98532 1.58266,-1.64018 4.36548,-4.06808 6.18405,-5.39533 1.81856,-1.32725 4.83184,-3.95932 6.69619,-5.84904 2.49651,-2.5305 3.81563,-3.43585 5.00613,-3.43586 1.14753,-10e-6 2.10322,-0.61011 3.29458,-2.10323 1.57858,-1.97841 1.82322,-2.0792 4.1227,-1.69846 3.04448,0.50409 4.50589,1.24858 4.50589,2.29546 0,0.44448 1.2589,1.95907 2.79755,3.36578 1.53865,1.40671 3.16473,3.26989 3.61353,4.14041 0.72802,1.41212 0.68049,1.85659 -0.44079,4.1227 -0.71021,1.43533 -1.00105,2.62531 -0.66875,2.73625 0.32342,0.10798 0.58803,0.71117 0.58803,1.34043 0,0.62926 2.25276,5.59042 5.00614,11.02479 2.75337,5.43437 5.00613,10.44111 5.00613,11.12608 0,0.68497 0.55469,2.52627 1.23263,4.09177 2.41335,5.57289 1.33311,12.49965 -2.58763,16.5925 -2.62458,2.73979 -9.09161,6.83916 -12.54108,7.94962 -1.58905,0.51156 -5.14195,1.73058 -7.89533,2.70893 -2.75337,0.97836 -5.80123,1.78762 -6.77301,1.79837 -0.97177,0.0107 -3.22454,0.41079 -5.00613,0.88899 -3.4049,0.91391 -5.75415,0.96309 -14.42945,0.30207 z"
           style="fill:#ff0000;stroke-width:0.58895707"
           id="path4785"
           inkscape:connector-curvature="0"
           sodipodi:nodetypes="sccsccccccscsccssccccsccsscccscscsccccc"
           inkscape:export-xdpi="96"
           inkscape:export-ydpi="96" />
        <path
           id="path4783"
           d="m 104.90889,489.80064 c -9.919929,-1.03914 -17.928509,-3.39747 -21.064949,-6.20309 -1.21566,-1.08744 -2.55508,-1.97716 -2.97649,-1.97716 -1.20158,0 -4.26036,-3.53436 -5.89805,-6.81506 -2.05504,-4.11677 -3.28494,-9.21347 -3.70814,-15.3665 -0.35028,-5.09288 -0.31535,-5.28415 1.62239,-8.88406 2.21944,-4.12321 9.12013,-12.5172 10.29039,-12.5172 0.41817,0 0.97225,-0.3681 1.23129,-0.81801 0.73069,-1.26906 6.26182,-5.45735 7.86734,-5.9573 0.7909,-0.24629 3.1607,-1.54976 5.26622,-2.8966 2.10552,-1.34684 6.611039,-3.86012 10.012269,-5.58506 3.40122,-1.72494 6.52095,-3.4079 6.93272,-3.73991 1.06735,-0.86059 4.92588,-1.10595 5.81308,-0.36963 0.41174,0.34171 1.0662,0.42501 1.45436,0.18511 0.45097,-0.27872 0.55129,-0.18625 0.2779,0.25612 -0.27278,0.44135 0.33385,1.01056 1.67355,1.57033 1.15579,0.48291 2.03621,1.1156 1.9565,1.40597 -0.0797,0.29036 0.76225,1.14859 1.87102,1.90717 5.89241,4.03135 2.20498,12.11552 -6.68464,14.65515 -6.87186,1.96318 -11.65395,3.99989 -14.76689,6.28926 -1.61963,1.19114 -4.4586,2.9238 -6.308819,3.85034 -4.07928,2.04281 -12.10458,9.37704 -12.63009,11.54249 -0.20786,0.85653 -0.71081,2.04423 -1.11766,2.63934 -0.7585,1.10945 -0.44942,3.14067 0.84629,5.56173 1.2625,2.35901 10.41992,4.06592 24.858459,4.63354 l 9.97067,0.39198 2.62057,2.80161 c 2.79487,2.98793 3.7971,5.44267 2.84574,6.96998 -0.32187,0.51673 -1.9112,2.02529 -3.53184,3.35235 -2.76111,2.26093 -3.23955,2.43373 -7.59966,2.74473 -2.55917,0.18254 -5.05059,0.45186 -5.53648,0.5985 -0.48589,0.14663 -3.00006,0.0449 -5.58705,-0.22612 z"
           style="fill:#ff0000;stroke-width:0.58895707"
           inkscape:connector-curvature="0"
           sodipodi:nodetypes="ccscscsccsccccccccsccccssccssscc"
           inkscape:export-xdpi="96"
           inkscape:export-ydpi="96" />
        <path
           id="path4781"
           d="m 164.34393,489.79564 c -2.61429,-0.27364 -7.86805,-1.28419 -11.67504,-2.24566 -5.82106,-1.47012 -7.28983,-2.08062 -9.23618,-3.83903 -1.27292,-1.15 -2.68372,-2.09092 -3.13512,-2.09092 -1.07893,0 -4.15421,-3.53788 -5.68708,-6.54256 -1.67891,-3.29095 -3.27183,-9.91002 -3.7514,-15.5883 -0.39726,-4.7037 -0.3768,-4.80395 1.8384,-9.00814 2.05469,-3.89952 8.6836,-12.32014 9.76709,-12.40699 0.25269,-0.0203 2.17773,-1.4945 4.27787,-3.27609 2.10012,-1.7816 4.16502,-3.23927 4.58867,-3.23927 0.42363,0 3.25025,-1.59018 6.28137,-3.53374 3.03111,-1.94356 5.97817,-3.53374 6.54902,-3.53374 0.57084,0 1.20536,-0.27096 1.41004,-0.60214 0.20468,-0.33117 2.00928,-1.42228 4.01022,-2.42468 2.00094,-1.0024 3.96662,-2.08677 4.36818,-2.40971 1.00458,-0.80789 5.91579,-1.13519 6.35561,-0.42355 0.1967,0.31828 0.60436,0.4262 0.90591,0.23983 0.30154,-0.18636 0.54826,0.0533 0.54826,0.53256 0,0.49379 0.78364,1.04352 1.80842,1.2686 1.21745,0.26739 1.70523,0.6661 1.49266,1.22006 -0.19302,0.503 0.34928,1.16677 1.39509,1.70758 3.75745,1.94306 4.51113,5.33064 2.10097,9.44327 -1.92757,3.28914 -3.2981,4.09392 -11.5207,6.76493 -4.2087,1.36714 -8.32872,3.16098 -10.37733,4.51823 -1.86862,1.238 -4.97902,3.09784 -6.912,4.13297 -4.275,2.2893 -11.79963,9.56387 -13.43669,12.99015 -1.28859,2.69694 -1.14418,5.40006 0.39724,7.43525 1.68671,2.22703 15.79624,4.36302 30.0462,4.54858 l 4.71166,0.0613 2.55457,2.85104 c 1.79095,1.99879 2.63886,3.52135 2.83652,5.09345 0.26975,2.14546 0.13383,2.35982 -3.14353,4.95768 -3.28075,2.60055 -3.62455,2.72896 -8.13713,3.03921 -2.59141,0.17816 -5.10921,0.44394 -5.5951,0.59063 -0.48589,0.14668 -3.02239,0.0428 -5.63667,-0.23085 z"
           style="fill:#ff0000;stroke-width:0.58895707"
           inkscape:connector-curvature="0"
           sodipodi:nodetypes="cccssscccscscscccsccccssscccccsscccc"
           inkscape:export-xdpi="96"
           inkscape:export-ydpi="96" />
        <path
           id="path4779"
           d="m 210.33351,488.83713 c -1.93841,-0.11914 -3.92614,-0.54785 -4.41717,-0.95267 -0.49103,-0.40483 -1.61408,-1.04321 -2.49566,-1.41862 -2.10398,-0.89597 -6.76581,-9.81684 -5.76206,-11.02627 0.49425,-0.59555 0.21486,-1.27549 -1.17419,-2.85752 l -1.82277,-2.07602 -0.0836,-11.08104 c -0.0574,-7.60682 0.16234,-12.0043 0.70085,-14.02582 0.43146,-1.61963 0.84382,-3.73987 0.91636,-4.71165 0.0725,-0.97178 0.56667,-3.99329 1.09807,-6.71447 0.86503,-4.42956 1.19697,-5.15157 3.17029,-6.89573 1.21227,-1.07147 2.52423,-1.95916 2.91548,-1.97265 0.39125,-0.0135 1.40646,1.16156 2.25601,2.61121 0.84955,1.44965 2.1551,3.1061 2.90121,3.68098 0.77619,0.59807 2.16589,3.17849 3.24825,6.03142 1.99409,5.25612 2.00506,5.66748 0.31396,11.78023 -1.75286,6.33598 -0.71443,17.71638 1.65827,18.17332 1.76952,0.34077 8.74494,-2.10153 12.6747,-4.4378 4.96844,-2.95378 11.60893,-9.99727 14.34069,-15.21095 2.44612,-4.66846 4.84818,-12.37891 5.49951,-17.65277 0.23964,-1.94027 0.91824,-4.14586 1.50802,-4.90131 0.74138,-0.94961 0.96465,-1.91184 0.72353,-3.11752 -0.26491,-1.32471 -0.0218,-2.0918 1.01054,-3.19086 0.74756,-0.7958 1.64436,-1.44519 1.99279,-1.4431 0.34843,0.002 1.89244,1.08283 3.43109,2.40165 1.95858,1.67874 2.79754,2.84152 2.79754,3.87728 0,0.81368 0.82661,3.86698 1.83696,6.7851 1.95634,5.6506 1.95186,5.45605 0.33712,14.61987 -0.61045,3.46431 -1.61386,5.95789 -4.62602,11.49577 -5.40627,9.93938 -5.24113,9.71321 -6.8054,9.3206 -1.07549,-0.26994 -1.34388,-0.0935 -1.34388,0.88375 0,0.67157 -0.5177,1.49809 -1.15041,1.83673 -0.63272,0.33862 -2.09486,2.03857 -3.24922,3.77765 -4.04908,6.10015 -9.74565,10.35627 -19.74679,14.75353 -3.08018,1.35427 -5.54169,2.05758 -6.9496,1.98567 -1.19903,-0.0613 -3.76603,-0.20885 -5.70445,-0.32799 z"
           style="fill:#ff0000;stroke-width:0.58895707"
           inkscape:connector-curvature="0"
           sodipodi:nodetypes="ccccccccccccscsscccccccccsccccscccccc"
           inkscape:export-xdpi="96"
           inkscape:export-ydpi="96" />
        <path
           d="m 382.88858,465.52746 -2.35583,-1.34964 0.13552,-4.08853 c 0.20231,-6.10228 1.80138,-16.01367 2.83918,-17.59754 0.50892,-0.77668 1.0497,-3.30605 1.22309,-5.72076 0.17098,-2.38069 0.53725,-4.85858 0.81394,-5.50643 0.27669,-0.64785 0.63342,-1.97301 0.79268,-2.94478 0.66169,-4.03788 2.70184,-8.27876 5.0251,-10.44587 3.25681,-3.03796 4.3359,-2.9023 5.84757,0.73516 0.67471,1.62354 1.584,3.08898 2.02066,3.25655 0.97578,0.37443 0.90475,10.24176 -0.0922,12.82037 -0.35185,0.91002 -1.32887,5.81309 -2.17119,10.89571 -1.7892,10.79631 -3.89454,17.95738 -5.85612,19.91896 -1.82,1.81999 -5.07375,1.8306 -8.22237,0.0268 z m -5.15338,25.28214 c -1.21472,-1.13392 -2.20858,-2.49015 -2.20858,-3.01386 0,-0.5237 -0.3211,-1.53107 -0.71353,-2.23861 -1.33775,-2.4118 -1.06295,-4.59366 0.77307,-6.13859 0.93385,-0.78577 2.15782,-2.20723 2.71992,-3.1588 0.67842,-1.1485 1.3235,-1.60716 1.91882,-1.36433 0.49325,0.20118 2.8512,0.8404 5.23995,1.42048 2.3887,0.58008 4.57119,1.41458 4.84989,1.85444 0.77289,1.21983 0.62235,3.84331 -0.35479,6.18185 -0.48371,1.15775 -0.73449,2.33965 -0.55721,2.62645 0.29083,0.47057 -0.60945,1.45389 -3.92251,4.28434 -0.60645,0.51814 -2.10028,1.09198 -3.31954,1.27519 -1.94633,0.29246 -2.48646,0.0815 -4.42549,-1.72856 z"
           style="fill:#ff0000;stroke-width:0.58895707"
           id="path4771"
           inkscape:connector-curvature="0"
           sodipodi:nodetypes="cccccsccccccccccscccccccccsc"
           inkscape:export-xdpi="96"
           inkscape:export-ydpi="96" />
        <path
           d="m 377.64221,401.62713 c -1.12155,-2.1688 -1.22368,-4.75626 -0.20148,-5.10378 0.4049,-0.13765 4.18159,-0.51795 8.39263,-0.8451 9.60848,-0.74646 14.13739,-0.24305 16.34356,1.81668 3.35617,3.13334 1.58789,4.02747 -9.22978,4.66707 -4.56041,0.26964 -9.65872,0.66758 -11.32947,0.88431 -2.95568,0.38341 -3.06317,0.34504 -3.97546,-1.41918 z m -31.72535,0.4115 c -1.13204,-1.80919 -1.66881,-4.17474 -1.13875,-5.01855 0.54331,-0.86494 15.31712,-2.08049 19.55832,-1.60921 3.81945,0.42441 7.05765,2.31715 7.06348,4.1286 0.006,1.67932 -1.10482,1.94854 -10.59722,2.56988 -4.37301,0.28624 -9.31424,0.70238 -10.98046,0.92475 -2.77069,0.36976 -3.10439,0.28469 -3.90537,-0.99547 z m -32.57663,-0.66997 c -1.37221,-2.87754 -0.7647,-5.1399 1.38782,-5.16801 0.88461,-0.0115 4.25869,-0.26494 7.49795,-0.56307 8.52592,-0.78471 13.36308,-0.24168 15.5947,1.75068 3.59741,3.21177 1.85728,4.12767 -9.06988,4.77374 -4.56041,0.26964 -9.6705,0.66897 -11.35568,0.88742 l -3.06405,0.39716 z m -31.61969,0.66997 c -1.13203,-1.80919 -1.66881,-4.17474 -1.13875,-5.01855 0.54331,-0.86494 15.31713,-2.08049 19.55832,-1.60921 3.81945,0.42441 7.05765,2.31715 7.06348,4.1286 0.006,1.67932 -1.10482,1.94854 -10.59722,2.56988 -4.37301,0.28624 -9.31424,0.70238 -10.98046,0.92475 -2.77069,0.36976 -3.10439,0.28469 -3.90537,-0.99547 z m -32.57663,-0.66997 c -1.37221,-2.87754 -0.7647,-5.1399 1.38782,-5.16801 0.88461,-0.0115 4.25869,-0.26494 7.49795,-0.56307 8.52592,-0.78471 13.36309,-0.24168 15.5947,1.75068 3.59741,3.21177 1.85728,4.12767 -9.06988,4.77374 -4.56041,0.26964 -9.6705,0.66897 -11.35568,0.88742 l -3.06405,0.39716 z m -31.64172,0.66997 c -0.49382,-0.76989 -0.95001,-1.92986 -1.01374,-2.57771 -0.30336,-3.08366 -0.45107,-3.0158 8.11792,-3.72967 9.46218,-0.78828 13.84114,-0.44415 16.48679,1.29566 2.27903,1.49872 2.57428,3.5727 0.59297,4.16551 -0.72884,0.21807 -4.90307,0.63069 -9.27608,0.91693 -4.373,0.28624 -9.31424,0.70238 -10.98045,0.92475 -2.76746,0.36933 -3.10722,0.2832 -3.92741,-0.99547 z m -32.21211,0.0662 c -0.92783,-1.73369 -1.28725,-4.23261 -0.73062,-5.07991 0.61307,-0.9332 15.51143,-2.04122 19.96757,-1.48502 2.62563,0.32772 4.04478,0.84986 5.14321,1.89231 3.31779,3.14872 1.45884,4.09292 -9.31204,4.72975 -4.56044,0.26964 -9.65577,0.66723 -11.32296,0.88354 -2.75197,0.35705 -3.09702,0.27038 -3.74516,-0.94067 z m -31.69736,0.42483 c -1.26124,-1.51969 -1.8386,-4.36592 -1.08087,-5.32838 0.84463,-1.07285 14.3922,-2.3359 19.23563,-1.79336 3.8273,0.42872 7.05766,2.3208 7.06346,4.13719 0.006,1.7646 -0.96221,2.00705 -10.30273,2.58096 -4.53497,0.27864 -9.57937,0.68442 -11.20977,0.90174 -2.28874,0.30507 -3.13334,0.19153 -3.70572,-0.49815 z m -32.49896,-0.42483 c -0.92783,-1.73369 -1.28725,-4.23261 -0.73062,-5.07991 0.61307,-0.9332 15.51143,-2.04122 19.96758,-1.48502 2.62562,0.32772 4.04477,0.84986 5.1432,1.89231 3.31779,3.14872 1.45884,4.09292 -9.31204,4.72975 -4.56044,0.26964 -9.65577,0.66723 -11.32296,0.88354 -2.75197,0.35705 -3.09702,0.27038 -3.74516,-0.94067 z m -31.697359,0.42483 c -1.26124,-1.51969 -1.8386,-4.36592 -1.08087,-5.32838 0.84463,-1.07285 14.392199,-2.3359 19.235629,-1.79336 3.8273,0.42872 7.05766,2.3208 7.06346,4.13719 0.006,1.7646 -0.96221,2.00705 -10.30273,2.58096 -4.534969,0.27864 -9.579369,0.68442 -11.209769,0.90174 -2.28873,0.30507 -3.13334,0.19153 -3.70572,-0.49815 z m -32.49895,-0.42483 c -0.92784,-1.73369 -1.28726,-4.23261 -0.73063,-5.07991 0.61307,-0.9332 15.51143,-2.04122 19.96758,-1.48502 2.62562,0.32772 4.04477,0.84986 5.1432,1.89231 3.31779,3.14872 1.45884,4.09292 -9.31204,4.72975 -4.56044,0.26964 -9.65576,0.66723 -11.32295,0.88354 -2.75198,0.35705 -3.09703,0.27038 -3.74516,-0.94067 z m -32.0727,-0.1718 c -0.56918,-0.86867 -0.90697,-2.33254 -0.79868,-3.46114 0.18414,-1.919 0.25415,-1.96419 3.72141,-2.40203 1.94355,-0.24543 6.87572,-0.50382 10.96037,-0.57421 7.03956,-0.12131 7.53816,-0.052 9.56653,1.32966 2.32676,1.58494 2.86512,3.69936 1.11727,4.38804 -0.56687,0.22335 -4.74111,0.63408 -9.27608,0.91272 -4.53497,0.27864 -9.60869,0.6879 -11.27494,0.90946 -2.81136,0.37383 -3.10058,0.29443 -4.01588,-1.1025 z m -31.3947798,0.90111 c -0.9826,-0.67259 -1.98703,-4.24314 -1.56643,-5.56834 0.20611,-0.64939 0.92876,-1.05213 1.91136,-1.06519 0.86896,-0.0115 4.23024,-0.26494 7.46951,-0.56307 8.39862,-0.773 13.4666898,-0.2266 15.6474298,1.68696 3.62096,3.17735 1.75146,4.19937 -8.8343098,4.82954 -4.39507,0.26163 -9.31619,0.63673 -10.93582,0.83355 -1.61963,0.19681 -3.28092,0.12776 -3.69174,-0.15345 z"
           style="fill:#000000;stroke-width:0.58895707"
           id="path4731"
           inkscape:connector-curvature="0"
           sodipodi:nodetypes="ccccsscccccsccccccccccccccsccccccccccccscssccccscsccccscsscccscsccccscsscccscsccccssccscccccccccc"
           inkscape:export-xdpi="96"
           inkscape:export-ydpi="96" />
        <path
           d="m 184.77483,98.161264 c 1.81409,-2.00454 2.2298,-2.13814 1.60759,-0.51665 -0.25009,0.65169 -1.06056,1.41736 -1.80106,1.70153 -1.10611,0.42445 -1.07159,0.213 0.19347,-1.18488 z m -8.2424,8.048426 c 0.31275,-0.82137 0.77844,-1.28359 1.03486,-1.02717 0.25643,0.25642 5.4e-4,0.92843 -0.56864,1.49339 -0.82253,0.8164 -0.91819,0.72074 -0.46622,-0.46622 z m 124.4558,70.98618 c 0,-0.4851 0.37477,-0.65037 0.83284,-0.36726 0.45805,0.2831 0.83284,0.67999 0.83284,0.882 0,0.20198 -0.37479,0.36726 -0.83284,0.36726 -0.45807,0 -0.83284,-0.39691 -0.83284,-0.882 z M 133.84045,7.2919702 c 5.63075,-3.04974 6.47883,-4.101244 3.33597,-4.136171 -2.30989,-0.02559 -2.29736,-0.05261 0.9919,-2.131756 1.83224,-1.15815401 4.1746,-2.448908 5.20523,-2.868327 2.36364,-0.961864 2.48058,-4.1985889 0.28123,-7.78462 -0.87593,-1.4282432 -2.74795,-7.2815312 -4.15999,-13.0072962 -1.78738,-7.247694 -3.83375,-12.924219 -6.73575,-18.684593 -2.29259,-4.550762 -4.16837,-8.759867 -4.16837,-9.353565 0,-0.593698 -1.03063,-1.295612 -2.29031,-1.559807 -1.25966,-0.264197 -3.82451,-0.824143 -5.69965,-1.244331 -4.68615,-1.050078 -10.55824,0.668098 -12.09464,3.538891 -0.81419,1.521352 -0.68255,1.605942 1.68881,1.085103 3.15511,-0.692975 3.18888,-0.25225 0.48976,6.390318 -2.58992,6.373846 -2.60565,8.251063 -0.0942,11.235815 1.29252,1.536087 2.78341,5.564343 4.26194,11.515432 4.04403,16.2772502 5.9422,21.3253832 9.62649,25.6014512 1.87469,2.175789 3.68759,3.955988 4.02867,3.955988 0.34108,0 2.74086,-1.148637 5.33286,-2.552532 z M 51.136702,14.105382 c 6.570647,-3.440185 8.544349,-3.656823 20.212275,-2.218609 14.056717,1.732643 14.185095,1.727071 13.452721,-0.584811 -1.660076,-5.2403208 -13.168377,-19.4102435 -28.239758,-34.771 -7.415618,-7.558009 -15.662177,-16.084192 -18.325679,-18.947075 -5.436121,-5.843068 -6.337126,-6.08589 -13.139001,-3.540982 -5.922788,2.216002 -9.397149,4.894087 -12.628071,9.733903 -1.472083,2.205139 -3.8678771,5.7502 -5.3239779,7.877901 -3.9332039,5.747335 -3.2175129,6.465425 1.8676568,1.87392 9.4576211,-8.539483 13.8861901,-12.187514 14.2967531,-11.776949 0.233861,0.233867 -1.154355,2.249461 -3.084932,4.479103 -3.993693,4.61235 -6.817341,10.341062 -6.064296,12.303455 0.759023,1.977983 1.390232,1.68644 5.238811,-2.419695 1.931985,-2.061276 4.054232,-3.747773 4.716106,-3.747773 1.672956,0 1.570267,0.309167 -1.589956,4.786897 -1.536344,2.176849 -3.810602,5.831793 -5.053904,8.122098 l -2.260549,4.164194 4.152607,7.7435982 c 6.803757,12.687346 8.756214,14.7290648 16.879045,17.6508158 6.214756,2.235409 9.543392,2.072491 14.894149,-0.728991 z m 59.088248,4.679804 c 5.51186,-2.769793 6.86204,-5.117791 6.87262,-11.9516778 0.0113,-6.90436601 -2.90354,-15.7294723 -7.6688,-23.2234192 -1.74763,-2.748367 -6.52324,-10.993468 -10.612475,-18.322446 -13.715091,-24.581058 -15.736998,-27.272382 -21.836112,-29.065674 -3.077313,-0.904809 -4.424582,-0.915125 -7.304514,-0.05593 -5.952161,1.775745 -10.899367,5.169691 -12.710503,8.719818 -0.915344,1.794234 -1.664273,3.424466 -1.664273,3.622736 0,1.325325 3.333406,1.040986 8.106228,-0.691453 3.066,-1.112898 5.670949,-1.92704 5.788788,-1.809207 0.117793,0.117836 -1.247871,1.983611 -3.03491,4.146169 -1.787028,2.162556 -3.6892,5.265291 -4.227033,6.894967 -2.848988,8.632467 3.569723,22.7545 17.182719,37.8043334 1.450169,1.6032248 3.285706,4.97621179 4.079014,7.4955548 2.613378,8.2994798 6.730939,13.5908918 14.109294,18.1316638 2.315612,1.425063 8.263347,0.64457 12.919957,-1.695437 z m -9.08666,160.029244 c -1.274375,-1.06043 -2.877445,-1.5852 -4.234176,-1.38607 l -2.183373,0.32045 2.626375,-4.62431 c 4.273524,-7.52444 4.649274,-7.98511 8.852404,-10.85329 2.21349,-1.51049 3.83431,-3.05411 3.60182,-3.43029 -0.41789,-0.67615 -5.91053,-2.46509 -12.518053,-4.07708 -3.753131,-0.91564 -6.61974,-3.46293 -5.92739,-5.26715 0.486741,-1.26847 4.862085,-2.21036 10.334423,-2.22468 3.36016,-0.009 18.98656,-5.08765 20.59152,-6.69261 1.35385,-1.35388 -10.52704,0.11921 -14.40979,1.78659 -2.00499,0.86101 -5.05112,1.5655 -6.7692,1.5655 -1.718065,0 -4.548907,0.59546 -6.290759,1.32325 -3.760673,1.57129 -29.985409,2.20843 -44.868847,1.09006 -8.072916,-0.6066 -9.489503,-0.95378 -12.492576,-3.06183 -1.862933,-1.30773 -5.142651,-3.38462 -7.288268,-4.6153 -2.145609,-1.2307 -5.705993,-4.12531 -7.911965,-6.43247 -2.205965,-2.30716 -5.324586,-4.94676 -6.930257,-5.86577 -1.671214,-0.95653 -4.337648,-3.87983 -6.2365271,-6.83732 -1.8244073,-2.84151 -4.9119556,-6.88924 -6.8612061,-8.99493 -2.34708082,-2.53547 -5.3835698,-7.73935 -8.9903481,-15.407516 -2.9954369,-6.36843 -6.0546247,-12.703294 -6.7981927,-14.077477 -4.664366,-8.620166 -4.687743,-8.719833 -5.27442,-22.486639 -0.312328,-7.32897 -0.878105,-14.074973 -1.257282,-14.991091 -2.153595,-5.203245 -8.978624,-13.741832 -10.984072,-13.741832 -1.613188,0 -2.730947,-3.618628 -2.730947,-8.841161 0,-3.163688 0.80628,-6.608906 2.621984,-11.2037238 2.488971,-6.298584 3.040953,-7.002801 10.881061,-13.882082 9.117378,-8.0000132 14.5220211,-11.8701562 16.5842188,-11.8755862 1.0302352,-0.0026 1.4442523,-1.049908 1.7300748,-4.375966 0.5618355,-6.537923 4.3465892,-13.456621 11.0738403,-20.243456 6.1693101,-6.223949 9.5131311,-7.86484 16.0270601,-7.86484 1.837673,0 4.686673,-0.562166 6.331121,-1.249259 1.64444,-0.687092 4.251191,-1.249258 5.792766,-1.249258 2.312208,0 3.739615,-0.911226 8.153792,-5.20524 19.955902,-19.41265 29.627982,-21.881125 40.924407,-10.44458 8.222092,8.324067 14.316842,9.045199 29.622182,3.504891 l 7.78056,-2.816447 6.91246,6.974983 c 10.06423,10.155292 17.60786,19.023217 19.67492,23.128919 0.99587,1.977985 4.52505,7.906278 7.84267,13.173981 3.3176,5.267705 6.31544,10.514586 6.66181,11.659739 1.32753,4.3886548 8.21177,15.9884782 9.96213,16.7859982 2.42584,1.10528 7.55339,14.3021368 12.56996,32.3514708 3.17258,11.414763 4.7387,15.434244 9.24829,23.735903 2.98591,5.496722 5.93109,10.512315 6.54487,11.145729 0.94105,0.971194 1.53699,0.318609 3.80268,-4.164179 1.47772,-2.923739 5.24212,-11.656377 8.36532,-19.405876 3.12322,-7.749511 6.01199,-14.308118 6.41951,-14.574674 0.40752,-0.266571 1.40794,-2.545957 2.2232,-5.065286 1.80818,-5.587778 2.38683,-6.365174 5.1281,-6.889193 2.14915,-0.410836 2.1496,-0.40969 1.78622,4.614021 -0.2897,4.004916 -0.7735,5.384954 -2.38333,6.798338 -4.93055,4.328826 -8.06188,9.257228 -9.04123,14.230018 -0.53972,2.740493 -1.59107,7.916482 -2.33631,11.502233 -1.49649,7.200413 -1.94885,27.096222 -0.74174,32.623892 l 0.72749,3.33135 -2.58486,-3.50953 c -5.48496,-7.447134 -9.24071,-8.022341 -18.31298,-2.80474 -3.36458,1.93502 -6.2495,3.38616 -6.41092,3.22475 -0.1614,-0.16141 1.2054,-2.15574 3.03736,-4.43185 1.83195,-2.27611 4.44671,-5.720904 5.81059,-7.65511 l 2.47976,-3.516736 -3.4806,-2.521343 c -1.91434,-1.386732 -4.37996,-2.521344 -5.47913,-2.521344 -2.55222,0 -6.67121,2.076388 -9.68836,4.883904 l -2.35915,2.195214 0.82935,-2.082089 c 2.67052,-6.704401 3.36258,-32.282123 1.09292,-40.392666 -0.51273,-1.832236 -1.13115,-4.684216 -1.37425,-6.337726 -0.28175,-1.916319 -1.94508,-4.879247 -4.58743,-8.171674 -4.57945,-5.706122 -4.92565,-6.604069 -5.29748,-13.7411388 -0.23288,-4.469516 -0.66635,-5.479996 -4.63124,-10.796013 -2.40586,-3.2257377 -5.69758,-8.5022982 -7.31493,-11.7257142 -1.61736,-3.22341 -3.68948,-6.920596 -4.60473,-8.215976 -0.91526,-1.295389 -2.77357,-4.668386 -4.12958,-7.495547 -2.19786,-4.582343 -8.3935,-12.219439 -9.9131,-12.219439 -0.31786,0 -0.11089,1.592804 0.45983,3.539565 0.57076,1.946759 2.10502,10.042356 3.40944,17.990225 2.25771,13.7561311 2.32475,14.9202952 1.39475,24.2218692 -1.03396,10.3413548 -3.09906,16.5931468 -7.04877,21.3390468 -3.33898,4.012041 -3.84367,5.544209 -5.17727,15.717527 -1.4966,11.416743 -1.61979,19.95539 -0.38434,26.638589 0.48956,2.648307 0.73515,4.97008 0.54573,5.159493 -0.18942,0.189401 -4.99359,-0.757852 -10.67597,-2.104997 -12.86832,-3.050792 -28.040263,-5.42727 -34.067478,-5.3362 -3.622244,0.05477 -19.618879,3.657358 -29.423692,6.626586 -0.837978,0.25377 -4.086757,2.879337 -7.219505,5.834614 -6.22895,5.876088 -6.047653,5.911768 -7.033729,-1.383993 -0.770456,-5.700467 -2.704022,-8.14935 -8.178568,-10.358268 -2.640064,-1.065249 -5.825671,-2.630338 -7.079126,-3.47798 l -2.279005,-1.541171 5.413451,-0.522074 c 8.531549,-0.822815 22.870039,-6.450671 29.982177,-11.768005 5.878275,-4.394837 12.891577,-12.226874 15.10522,-16.868626 3.461818,-7.259034 3.217712,-8.755043 -0.859202,-5.265379 -1.783975,1.52702 -6.675736,4.554445 -10.87059,6.727619 -6.255416,3.240642 -8.405465,3.949003 -11.955715,3.938934 -5.762647,-0.01626 -8.112716,-1.330927 -10.405128,-5.820423 -1.809071,-3.54289 -1.886571,-4.690113 -0.594793,-8.80332 0.506428,-1.612502 0.19333,-1.737365 -4.721578,-1.882847 -2.895188,-0.08569 -6.388304,-0.20411 -7.762487,-0.263148 -2.449828,-0.105212 -14.2056,1.947952 -17.489607,3.054647 -0.916122,0.308723 0.02082,-0.462549 2.082095,-1.713949 2.061276,-1.251413 4.86984,-2.520191 6.241259,-2.819525 1.371419,-0.299335 2.60252,-1.110386 2.735773,-1.802344 0.360553,-1.872212 -3.240674,-6.770664 -6.373777,-8.6697438 -1.511428,-0.916118 -5.20913,-3.838605 -8.2171351,-6.494422 -7.3861113,-6.5213174 -11.7340597,-8.9328642 -17.1052227,-9.48721 -4.1480522,-0.4281131 -4.6947452,-0.2691249 -7.4782452,2.1748081 -1.651669,1.4501919 -3.770493,4.22206389 -4.708497,6.15972089 -2.025171,4.18344401 -4.285183,11.39487981 -3.571072,11.39487981 0.276909,0 1.718885,-1.178022 3.204392,-2.6178338 l 2.700921,-2.617834 -1.828433,3.6588728 c -2.484529,4.9718 -2.620912,17.054211 -0.246475,21.835504 3.435315,6.917532 8.028384,7.14817 12.0542458,0.605317 3.1434617,-5.108784 5.1039181,-6.3878 10.9325276,-7.132502 l 4.5806115,-0.585236 -3.3313533,3.017853 c -1.8322438,1.659831 -5.05600162,3.92697 -7.1639047,5.038092 -3.0365811,1.600638 -4.191334,2.854228 -5.5600615,6.035917 -2.7533964,6.400441 -3.7647724,11.510073 -3.1240114,15.782972 0.664921,4.434006 1.2788951,3.967086 3.4562476,-2.628454 2.9450119,-8.920915 4.6347653,-12.909003 5.4695327,-12.909003 1.01527618,0 0.6005654,1.98196 -1.7426566,8.328383 -1.8711668,5.067915 -2.1889344,11.584525 -0.8980584,18.416979 0.9027331,4.778075 11.4379984,27.155032 13.6485686,28.989652 0.724469,0.60124 2.4289151,3.03623 3.7876571,5.411066 1.397144,2.44194 4.1094,5.49489 6.242874,7.02702 2.074835,1.49005 4.892625,4.33732 6.261762,6.32729 3.084017,4.48246 7.982082,8.43194 12.382668,9.98456 5.570431,1.96536 21.750395,4.03298 26.370911,3.36991 2.290302,-0.32866 9.036287,-0.7559 14.991097,-0.94941 24.866185,-0.80803 28.689035,-1.64287 39.608225,-8.6497 2.11486,-1.3571 4.42052,-2.46745 5.12368,-2.46745 0.70317,0 2.83303,-1.6865 4.73305,-3.74778 1.90002,-2.06127 3.98887,-3.74777 4.64186,-3.74777 0.65302,0 4.01666,-1.46412 7.47476,-3.25361 l 6.28746,-3.25363 -0.60101,2.21258 c -1.65696,6.09995 -0.18344,11.98033 4.56859,18.23191 l 2.04775,2.69392 3.01559,-2.48571 c 1.6586,-1.36715 3.35655,-2.48572 3.77322,-2.48572 0.41668,0 -0.69935,1.16155 -2.48007,2.58122 -1.78071,1.41967 -3.14106,3.04729 -3.02299,3.61693 0.11809,0.56966 -3.60539,4.18652 -8.27437,8.03749 -4.66898,3.85095 -9.63769,8.16924 -11.04157,9.59618 -1.40389,1.42693 -4.42642,3.84549 -6.71672,5.37456 -2.2903,1.52906 -6.57947,4.76522 -9.53148,7.19142 -2.952,2.42621 -5.76282,4.42287 -6.24629,4.43704 -1.29692,0.038 -5.98577,6.56477 -8.0202,11.16392 -1.13456,2.56489 -1.59892,4.86586 -1.29182,6.40132 0.56526,2.82633 0.65274,2.79779 -1.94617,0.63518 z m 6.59996,-166.505268 c 3.0198,-2.5811818 4.19565,-3.0350758 4.19565,-1.619586 0,0.927431 -4.91318,4.164185 -6.24629,4.114989 -0.45805,-0.01697 0.46472,-1.139828 2.05064,-2.495403 z M 64.160405,32.285859 c 3.143343,-1.399087 6.643669,-3.001519 7.778505,-3.560976 2.937117,-1.447929 5.848622,-6.150501 5.848622,-9.446519 0,-3.726523 -2.469613,-4.666582 -11.24332,-4.279772 -5.001753,0.220513 -7.835331,0.839221 -11.366545,2.48187 -6.575979,3.059016 -8.205155,4.901237 -8.205155,9.278044 0,8.091636 6.633769,10.224947 17.187893,5.527353 z M 118.1992,210.57958 c -0.8186,-0.90457 -3.19016,-2.46848 -5.27011,-3.47538 -9.57993,-4.63756 -8.63361,-7.46905 5.66753,-16.95773 4.35157,-2.88723 9.91851,-7.34598 12.37096,-9.90832 2.45245,-2.56234 4.79482,-4.6588 5.20524,-4.6588 0.41043,0 0.74721,-0.46847 0.74838,-1.04104 0.004,-2.08738 20.8048,-18.96962 30.91987,-25.0954 3.49433,-2.11619 6.80361,-4.39019 7.35397,-5.05334 0.55037,-0.66315 2.3761,-1.64605 4.05718,-2.18423 1.6811,-0.53818 4.36825,-1.90287 5.97147,-3.03261 l 2.91493,-2.0541 -2.61762,2.36538 c -1.43969,1.30096 -4.14179,3.59194 -6.00467,5.09108 -1.91447,1.54066 -3.20217,3.20747 -2.9618,3.83382 0.53874,1.40397 -6.84251,8.19632 -17.14884,15.78066 -4.35157,3.20229 -9.97324,7.58185 -12.49256,9.73236 -2.51935,2.15052 -5.07588,3.73781 -5.6812,3.52732 -0.60533,-0.2105 -1.91705,0.36316 -2.91494,1.27478 -0.99789,0.91163 -2.93869,2.24109 -4.31287,2.95434 -1.37418,0.71327 -4.74718,3.40394 -7.49554,5.9793 -2.74837,2.57535 -6.87092,6.10817 -9.16122,7.85072 -2.29032,1.74255 -4.81345,3.89633 -5.607,4.7862 -1.39411,1.56331 -1.31783,1.67865 2.26046,3.4171 2.61282,1.26941 4.2075,2.78758 5.41571,5.15587 1.82674,3.58069 1.23145,4.41788 -1.21733,1.71202 z m 146.14414,4.19234 c 0,-0.43104 0.37049,-1.01268 0.82329,-1.29253 0.47211,-0.29178 0.61173,0.0425 0.32733,0.78369 -0.55367,1.44282 -1.15062,1.70681 -1.15062,0.50884 z m -140.36752,3.22669 c -0.30193,-0.48854 -0.37035,-1.06687 -0.15204,-1.28518 0.2183,-0.2183 0.61886,0.1814 0.89009,0.88825 0.56314,1.46755 0.0832,1.72568 -0.73805,0.39693 z m 191.84284,28.58021 c -1.46738,-1.70864 -2.56772,-3.53956 -2.12721,-3.53956 0.16991,0 1.1402,1.12433 2.15617,2.49852 2.00742,2.71516 1.98864,3.3904 -0.029,1.04104 z M 273.5331,28.152389 c 3.62076,-1.84717 6.32554,-6.366489 10.20949,-17.058638 2.97534,-8.1908628 7.77475,-18.277908 9.29817,-19.542223 1.64422,-1.3645971 1.66163,-6.419618 0.0355,-10.311497 -1.74936,-4.186788 -1.595,-6.440273 0.47825,-6.982442 1.38697,-0.362703 1.62244,-0.88092 1.19446,-2.628755 -0.988,-4.034845 -2.29935,-4.663496 -7.36381,-3.530119 -10.39888,2.327175 -16.12469,7.876135 -19.74685,19.136969 -0.97933,3.0445905 -2.65797,7.4095115 -3.7303,9.6998142 -9.41765,20.1142028 -9.54891,21.3871668 -2.64329,25.6362258 3.92972,2.417982 4.10527,2.657741 2.26416,3.092361 l -1.99583,0.471146 2.44618,1.82231 c 3.06485,2.283191 5.36828,2.330167 9.55386,0.194848 z m 95.01205,12.45764 c 4.65501,-2.374809 14.06124,-17.42179 14.06124,-22.49351 0,-2.487074 -2.60448,-8.3328798 -6.37037,-14.2984458 -2.59008,-4.10294101 -1.14691,-4.03705801 2.12744,0.09714 2.75363,3.47674 5.72966,4.86621 6.4427,3.008011 0.88508,-2.306466 -3.64439,-9.386731 -7.45504,-11.6533769 -0.93987,-0.5590598 -1.15846,-1.2096967 -0.6649,-1.979245 0.56304,-0.8778959 2.32591,0.3411917 7.52706,5.2052519 3.7355,3.493397 7.30963,6.351627 7.94252,6.351627 1.50988,0 -4.54256,-11.108994 -8.00396,-14.690934 -2.90466,-3.0057882 -9.10334,-6.5339432 -12.87843,-7.3301202 -2.38408,-0.502809 -3.21271,0.03207 -10.5069,6.781621 -4.35528,4.0301099 -10.87354,10.69828019 -14.485,14.8181752 -9.22922,10.5285108 -11.44311,12.5587198 -16.37959,15.0208058 -2.38974,1.191881 -5.84407,3.553694 -7.6763,5.248495 -1.83225,1.694787 -4.56846,4.194517 -6.08046,5.554957 l -2.74912,2.473527 1.10191,-2.486734 c 2.12704,-4.800173 3.98447,-7.8092 5.48803,-8.890669 0.83469,-0.60038 3.05216,-3.364304 4.92767,-6.14203 1.87552,-2.77774 5.03619,-6.9581298 7.02371,-9.2897818 8.00603,-9.39226 10.08095,-17.4902252 6.14183,-23.9703662 -3.45351,-5.681258 -5.49689,-9.577642 -5.02282,-9.577642 0.24977,0 3.11495,1.339962 6.36704,2.977689 9.71826,4.894041 9.8916,0.599884 0.34825,-8.626983 -5.59628,-5.410672 -7.97858,-6.497037 -12.60215,-5.746736 -4.27124,0.693128 -7.15412,3.156059 -10.38142,8.869215 -6.52589,11.552435 -11.44504,19.455106 -15.17717,24.3823059 -7.011,9.2559703 -15.04891,21.7644741 -16.60045,25.8334491 -0.84741,2.222355 -1.51185,6.144419 -1.51185,8.92404 0,4.318632 0.32155,5.325337 2.48971,7.794735 1.36935,1.5596 3.66119,3.402994 5.09296,4.096421 2.37342,1.149486 2.99737,1.122278 7.06713,-0.308131 2.45513,-0.862905 5.34272,-1.568918 6.41686,-1.568918 1.07414,0 3.53597,-1.354967 5.4707,-3.011037 3.46071,-2.962222 3.5455,-2.985852 5.23135,-1.45746 1.41633,1.28405 3.5411,1.630503 12.24792,1.997049 9.58631,0.403567 11.02145,0.67667 15.94773,3.034836 2.9774,1.425247 5.97563,2.811847 6.66272,3.08133 2.53984,0.996156 15.23004,-0.401417 18.41945,-2.028541 z M 345.62947,294.61821 c -1.78584,-1.34283 -4.24452,-2.44149 -5.46374,-2.44149 -1.21922,0 -4.47437,-0.88474 -7.23364,-1.96609 -2.75928,-1.08136 -8.13852,-2.42253 -11.95385,-2.98041 -9.23207,-1.34992 -15.2278,-3.29633 -21.52773,-6.9886 -2.86783,-1.68079 -5.79788,-3.056 -6.51123,-3.056 -0.71333,0 -4.53472,-1.27788 -8.49196,-2.83976 -3.95725,-1.56185 -8.88148,-3.07737 -10.94276,-3.3678 -2.06128,-0.29044 -5.09512,-1.41548 -6.74187,-2.50011 -2.22815,-1.46757 -4.04536,-1.94288 -7.10347,-1.858 -2.9861,0.0828 -4.78774,-0.36899 -6.59118,-1.65314 -1.36499,-0.97195 -4.16487,-2.21131 -6.22195,-2.75411 -2.26116,-0.59665 -5.05746,-2.23856 -7.07149,-4.15219 -2.03348,-1.93214 -5.11592,-3.73472 -7.91196,-4.62684 -7.98602,-2.54809 -10.69226,-4.41434 -22.3386,-15.40489 -13.28584,-12.53773 -10.71,-12.44586 -23.46751,-0.83684 -4.35159,3.95983 -10.4365,8.9719 -13.52204,11.13793 -3.08555,2.16603 -7.32458,5.42213 -9.4201,7.23577 -2.09549,1.81366 -4.48037,3.29755 -5.29971,3.29755 -0.81932,0 -3.08804,1.07346 -5.04158,2.38549 -2.97768,1.99982 -4.15318,2.31771 -7.27123,1.96625 -2.7433,-0.30922 -4.52134,0.0179 -6.77569,1.24646 -2.02915,1.10587 -4.2769,1.58964 -6.68788,1.43934 -2.27687,-0.1419 -6.44512,0.67797 -11.1742,2.19792 -4.14846,1.33336 -8.27106,2.42428 -9.16132,2.42428 -0.89027,0 -4.29437,1.31525 -7.56469,2.92277 -4.367555,2.14687 -8.599068,3.37542 -15.940082,4.62792 -5.496728,0.93784 -11.824235,2.43342 -14.0611,3.32353 -2.236877,0.89009 -5.54118,1.61835 -7.342899,1.61835 -2.19132,0 -4.159623,0.67407 -5.94518,2.03597 -1.468104,1.1198 -4.347621,2.42308 -6.398912,2.89621 -2.051303,0.47314 -5.978301,1.79671 -8.726668,2.94129 -2.748367,1.14458 -5.794388,2.08995 -6.76894,2.10082 -4.679362,0.0522 -5.348231,-6.95947 -1.348715,-14.13848 1.403549,-2.51934 3.971535,-7.95361 5.706619,-12.07616 1.735084,-4.12255 4.330515,-8.99464 5.767642,-10.82689 1.437104,-1.83226 5.603303,-9.32779 9.258192,-16.65677 6.889941,-13.81608 26.54059,-50.19591 27.875709,-51.60715 0.418355,-0.44222 -0.765782,2.74339 -2.631398,7.07911 -1.865628,4.33573 -4.538762,10.83093 -5.940309,14.4338 -2.270638,5.83697 -6.800005,14.61181 -10.590197,20.51659 -3.010677,4.6904 -8.105678,19.93313 -7.334515,21.94274 0.964942,2.51458 3.121951,1.43638 9.741803,-4.86955 3.606481,-3.43547 6.805157,-6.24629 7.108187,-6.24629 1.23172,0 -2.991496,5.54496 -5.578891,7.32487 -7.123351,4.90034 -6.215493,11.71517 2.859516,21.46488 l 4.401573,4.72884 7.300249,-3.85031 c 6.253603,-3.29826 7.993581,-3.85029 12.136132,-3.85029 6.175284,0 29.046564,-5.78548 37.502064,-9.48646 3.47144,-1.51945 7.70393,-3.21692 9.40556,-3.77213 4.07403,-1.32934 8.14946,-5.19655 8.14946,-7.73312 0,-1.17568 -1.11643,-3.05994 -2.70672,-4.56838 -4.6224,-4.3844 -13.5694,-9.99517 -16.94962,-10.6293 l -3.22752,-0.60549 2.71929,-1.14338 c 1.49561,-0.62885 4.48951,-2.61584 6.65311,-4.41552 2.16361,-1.79969 5.62032,-4.10337 7.6816,-5.11929 2.2071,-1.08781 7.0599,-5.27952 11.80473,-10.19664 6.96653,-7.21944 7.92893,-8.55458 7.11067,-9.8648 -0.52048,-0.83343 -0.77312,-1.64103 -0.56145,-1.79467 7.38104,-5.35697 14.88082,-11.25429 22.81893,-17.94322 5.46781,-4.60738 10.5273,-8.33479 11.24332,-8.28315 1.48037,0.10674 7.9023,-4.76062 20.6197,-15.62837 4.82418,-4.12255 10.69631,-8.92226 13.04916,-10.66602 10.17654,-7.54211 14.18854,-14.29691 14.24484,-23.98332 l 0.0272,-4.66715 2.36235,3.20969 c 1.29929,1.76532 2.69724,3.20968 3.10655,3.20968 0.40929,0 3.2814,2.30949 6.38244,5.13219 7.12922,6.48932 14.5435,11.32848 18.43871,12.03456 1.66291,0.30143 4.41397,1.24693 6.11346,2.10113 1.69948,0.8542 4.54443,1.55308 6.32212,1.55308 1.7777,0 5.07193,0.55811 7.32051,1.24024 2.2486,0.68213 5.48067,1.2443 7.18238,1.24926 1.70174,0.006 4.69995,0.5248 6.66272,1.15522 4.34674,1.39611 25.4428,1.68561 32.71802,0.44896 2.74837,-0.46718 5.93397,-1.51841 7.07912,-2.33608 1.14515,-0.81769 3.69432,-1.74257 5.66481,-2.05531 4.37288,-0.69404 9.07566,-3.698 12.54202,-8.01141 1.42912,-1.77836 3.33554,-3.46734 4.23651,-3.75328 0.90094,-0.28596 2.75649,-2.46731 4.12347,-4.84745 1.36697,-2.38016 4.56345,-7.47918 7.10332,-11.3312 4.78118,-7.25123 10.78487,-21.242556 12.08732,-28.168946 0.45131,-2.399988 0.437,-5.453362 -0.0362,-7.718557 -1.56379,-7.486687 -1.80433,-9.994068 -0.95874,-9.994068 1.04185,0 2.45951,3.501359 3.20349,7.911967 0.30907,1.832249 1.31758,5.377537 2.24112,7.878455 1.58201,4.283933 1.72526,4.428543 2.47505,2.498513 1.20723,-3.107572 0.82159,-12.859207 -0.64851,-16.398334 -1.40074,-3.37214 -8.71307,-11.336926 -14.1396,-15.401215 l -3.33136,-2.495077 2.91494,0.610745 c 6.41245,1.343569 9.96777,3.736167 12.21369,8.21936 2.47142,4.933311 4.26823,7.175586 5.74998,7.175586 0.5768,0 2.19745,-1.780181 3.60143,-3.955978 1.40397,-2.175797 3.21631,-4.871603 4.02742,-5.990703 2.46061,-3.394946 1.88494,-11.030698 -1.30467,-17.30503 -1.44873,-2.849817 -2.63404,-5.646561 -2.63404,-6.214969 0,-0.568422 1.91196,0.826309 4.2488,3.099389 l 4.24884,4.132876 -0.58549,-2.914934 c -1.59038,-7.91776 -6.41547,-14.092499 -11.35307,-14.528689 -1.54296,-0.136318 -3.78702,-0.708714 -4.98682,-1.272031 -1.98108,-0.930131 -2.78261,-0.672273 -8.72738,2.807649 -3.60027,2.107517 -7.16517,3.831858 -7.92199,3.831858 -0.75681,0 -2.40615,1.350542 -3.66517,3.001195 -1.259,1.650668 -3.96519,4.677273 -6.01373,6.725823 -2.86934,2.869331 -3.63599,4.188225 -3.33866,5.743596 0.3731,1.951798 0.22282,2.018982 -4.5164,2.018982 -2.7674,0 -6.96621,-0.725385 -9.64149,-1.665671 -2.60653,-0.916118 -4.84845,-1.665672 -4.98203,-1.665672 -0.13365,0 -0.0165,2.529738 0.26004,5.62166 0.29885,3.340364 0.13434,6.567403 -0.4053,7.952249 -0.94516,2.42529 -5.13194,4.748534 -8.55744,4.748534 -3.16966,0 -16.97743,-7.260326 -22.41698,-11.787167 -5.03832,-4.192934 -5.15598,-4.241225 -4.58038,-1.879807 0.32493,1.333006 1.74555,4.948481 3.15694,8.034376 3.87648,8.475637 12.20575,15.502048 27.37827,23.095844 6.43549,3.220934 12.39623,5.856235 13.24613,5.856235 1.95713,0 4.18002,0.83854 4.18002,1.57681 0,0.3112 -2.71713,1.46216 -6.03807,2.55774 -8.08958,2.66873 -10.83222,5.47883 -12.21699,12.517456 l -1.04754,5.32455 -2.69789,-4.37392 c -2.50952,-4.068516 -3.36208,-4.695466 -12.2107,-8.979406 -16.50791,-7.99209 -15.94554,-7.86392 -32.48666,-7.4036 -7.97713,0.22201 -16.75255,0.84467 -19.50092,1.3837 -5.82754,1.14294 -8.81861,1.23943 -13.08987,0.42225 -2.94284,-0.56302 -3.0728,-0.72441 -2.63039,-3.2664 0.25598,-1.470776 1.03633,-4.493374 1.73411,-6.716939 0.96477,-3.074283 1.17343,-6.565889 0.87106,-14.574672 -0.42011,-11.128138 -1.52818,-15.597866 -5.19166,-20.942335 -1.09894,-1.60321 -3.04996,-5.91316 -4.3356,-9.577647 -2.11617,-6.031859 -2.33774,-7.72724 -2.34014,-17.906031 -0.003,-10.6734118 0.14055,-11.6443538 2.82154,-19.1552798 1.55331,-4.3515808 3.71313,-9.9371502 4.79961,-12.4123862 1.08646,-2.47523 1.81568,-4.66015 1.62046,-4.855366 -0.83075,-0.830748 -4.88511,2.777082 -6.35199,5.652415 -0.87581,1.716714 -3.41091,5.5009317 -5.63358,8.4093676 -2.22267,2.9084446 -5.57721,7.9115096 -7.45452,11.1179306 -2.81205,4.8029288 -7.91457,11.5306618 -12.00134,15.8239398 -2.59724,2.728458 3.94876,-9.33861 13.32775,-24.5687298 7.94288,-12.8981002 18.39787,-25.1123352 25.77993,-30.1178672 2.15073,-1.458352 5.28935,-4.119356 6.9747,-5.913352 3.53422,-3.76205 3.09446,-3.79888 14.42534,1.208071 11.19542,4.947094 19.29777,4.556161 24.74291,-1.19383 9.58366,-10.120217 21.84804,-8.290973 33.93199,5.060992 3.17936,3.512987 6.83142,7.779002 8.11568,9.480041 1.54791,2.050248 3.0184,3.103023 4.36237,3.123145 1.11504,0.01666 3.5511,0.743665 5.41345,1.615497 1.86235,0.871824 5.79082,1.98842 8.72996,2.481318 7.04916,1.182147 10.81476,3.907537 15.8963,11.5050701 3.8254,5.71943009 7.49276,15.1052131 7.49276,19.1759839 0,1.009957 1.32077,2.58613 3.33922,3.984906 4.36373,3.024074 20.14254,19.985549 22.07582,23.730456 1.03885,2.01235 1.50613,4.765598 1.5091,8.891715 0.004,5.324573 -0.30334,6.484392 -2.81483,10.628346 -1.55053,2.558337 -4.19028,5.558913 -5.8661,6.667924 -5.70431,3.774938 -7.61531,8.62388 -9.04458,22.949487 -0.77118,7.72949 -1.31266,9.65858 -4.66375,16.615096 -2.08522,4.32866 -5.6002,10.3251 -7.81104,13.32542 -2.21086,3.00032 -4.97756,7.36278 -6.14821,9.69437 -3.72639,7.42175 -21.54387,27.2283 -27.63694,30.7222 -1.83225,1.05063 -6.32957,2.86097 -9.99407,4.02296 -5.77363,1.83078 -8.57677,2.16034 -21.0069,2.4698 -12.65437,0.31507 -14.74998,0.17545 -17.78876,-1.18505 -1.89452,-0.8482 -4.49691,-1.54218 -5.7831,-1.54218 -1.28618,0 -4.14977,-0.78591 -6.36355,-1.74644 -4.5616,-1.97926 -12.66024,-4.25877 -13.79121,-3.88178 -1.00091,0.33364 4.78083,7.85152 6.91796,8.99528 1.17587,0.62929 1.52154,1.39475 1.15351,2.5543 -0.29767,0.93792 0.0387,2.51685 0.7759,3.64195 1.29747,1.98019 1.29269,1.9848 -1.58047,1.51856 -1.88618,-0.3061 -3.56269,-0.0217 -4.85229,0.82337 -1.91292,1.2534 -1.95844,1.22844 -1.56005,-0.85556 0.4102,-2.14578 0.40846,-2.14644 -4.30718,-1.65973 -4.82396,0.49786 -17.17979,5.92371 -17.17979,7.54419 0,0.44811 3.56038,4.48389 7.91197,8.9684 4.36368,4.497 7.91195,8.86416 7.91195,9.73794 0,1.08241 -1.12123,2.04107 -3.53956,3.02631 -1.94675,0.79312 -4.6639,1.97766 -6.03808,2.63232 -2.09922,1.00004 -1.85967,0.5958 1.49906,-2.52953 l 3.99756,-3.71977 -7.21348,-8.36369 c -5.14915,-5.97019 -7.74852,-8.36368 -9.08305,-8.36368 -1.02826,0 -3.6367,1.34931 -5.79655,2.99848 -2.15986,1.64919 -5.28151,3.3725 -6.93705,3.82962 -1.89661,0.52368 -5.7087,3.30591 -10.30557,7.52147 l -7.29552,6.69037 2.92761,3.8465 c 1.64874,2.16622 4.62404,4.71506 6.81113,5.83487 2.13594,1.09361 6.41047,4.64373 9.49895,7.88916 l 5.61543,5.90079 -5.31294,1.45541 c -11.40402,3.12398 -17.96005,7.45316 -19.28571,12.73506 -0.87961,3.50464 0.90908,5.15466 8.18234,7.54794 3.7839,1.24509 10.72481,3.71325 15.42424,5.4848 4.69945,1.77154 9.5386,3.221 10.7537,3.221 3.84415,0 11.30176,2.73587 17.76317,6.51651 3.43546,2.01013 8.68234,4.91574 11.65973,6.45693 2.9774,1.54119 6.44023,3.45966 7.69516,4.26326 l 2.2817,1.4611 6.13441,-6.22577 c 6.72565,-6.82585 8.04106,-8.79017 8.04106,-12.00793 0,-1.91997 0.1703,-2.03755 1.6304,-1.12568 1.38051,0.86213 1.94816,0.71969 3.70341,-0.92929 1.14015,-1.07113 2.20066,-2.74417 2.35668,-3.71789 0.42416,-2.64711 -3.22585,-12.96395 -5.93006,-16.76148 -1.30472,-1.83223 -2.97172,-5.39261 -3.70442,-7.91195 -0.73268,-2.51934 -2.09415,-6.06528 -3.02545,-7.87985 -0.93131,-1.81458 -1.69328,-3.9656 -1.69328,-4.78007 0,-0.81444 -0.90673,-3.82711 -2.01499,-6.6948 -1.10824,-2.86771 -2.47925,-7.27529 -3.04668,-9.79464 -0.56744,-2.51932 -2.32849,-6.94107 -3.91344,-9.8261 -1.58494,-2.88501 -2.65659,-5.47062 -2.38144,-5.74577 0.62146,-0.62146 15.17468,29.51621 16.33634,33.83027 0.90722,3.36914 6.84018,16.70084 10.77696,24.21637 2.47561,4.72612 7.71843,17.1468 8.78859,20.82096 0.33356,1.14516 1.50886,3.41823 2.61179,5.05126 2.13684,3.16387 9.48777,24.0984 9.48777,27.01998 0,1.63981 -1.44707,3.80952 -2.45687,3.68378 -0.25193,-0.0314 -1.91919,-1.15571 -3.70503,-2.49851 z M 290.69937,36.951523 c -1.21206,-1.123282 -2.20371,-2.317737 -2.20371,-2.654332 0,-0.336596 1.12433,0.465165 2.49851,1.781725 1.37418,1.316546 2.49851,2.511 2.49851,2.654332 0,0.601088 -0.71281,0.14643 -2.79331,-1.781725 z m 53.91509,22.90046 c 2.89019,-1.098852 4.96542,-4.577966 4.83294,-8.102359 -0.14463,-3.847358 -0.9381,-4.703166 -8.42279,-9.084526 -5.62602,-3.293345 -6.78777,-3.662706 -11.28604,-3.58824 -8.20038,0.135753 -9.19165,0.658683 -9.10347,4.802307 0.0652,3.064575 0.61645,4.082266 4.16419,7.688069 4.25213,4.321712 12.54675,9.080414 15.82756,9.080414 1.04218,0 2.8366,-0.358049 3.98761,-0.795665 z m -60.3789,100.406177 c -2.81222,-5.19219 -4.02676,-5.72277 -12.98715,-5.67338 -6.35515,0.035 -7.73792,0.42885 -7.73792,2.20382 0,1.31439 2.94796,2.53945 9.16123,3.80708 2.51935,0.51399 6.2671,1.62068 8.32838,2.45929 5.63064,2.2908 5.8761,2.07862 3.23546,-2.79681 z"
           style="fill:#ff0000;stroke-width:0.83283842"
           id="path4727"
           inkscape:connector-curvature="0"
           inkscape:export-xdpi="96"
           inkscape:export-ydpi="96" />
        <path
           id="path4725"
           d="m 6.2514312,380.88549 c -5.13063,-1.07326 -7.3830546,-4.13564 -7.99835,-10.87447 l -0.37624,-4.12065 3.59789,-7.53892 c 1.9788411,-4.1464 3.5979,-7.75689 3.5979,-8.0233 0,-0.2664 -0.51135,-1.64444 -1.13633,-3.0623 -0.62499,-1.41787 -1.22131,-3.88484 -1.32516,-5.48217 -0.17641,-2.71343 -0.0614,-2.99123 1.75102,-4.22858 1.06692,-0.7284 3.71722,-1.74525 5.8895798,-2.25969 2.17235,-0.51443 5.33415,-1.31135 7.02622,-1.77091 4.08524,-1.10954 15.78542,-2.86861 18.59406,-2.79554 1.47494,0.0384 2.84222,0.56912 4.02065,1.5607 0.98212,0.8264 2.03037,1.50255 2.32944,1.50255 1.23975,0 0.4895,3.36398 -1.07586,4.82398 -2.35784,2.19914 -3.46535,2.64382 -9.30913,3.73775 -2.89716,0.54232 -5.93013,1.31873 -6.73995,1.72534 -0.80982,0.40661 -2.58321,0.90931 -3.94088,1.11711 -4.40482,0.67419 -5.37405,1.26535 -5.02953,3.06764 l 0.30583,1.59984 6.68901,-0.38203 c 4.90468,-0.28013 6.64948,-0.20141 6.54087,0.2951 -0.0815,0.37243 0.96206,1.5 2.31896,2.50571 3.37117,2.49868 3.31024,3.90333 -0.26471,6.10302 -4.32677,2.66229 -6.63092,3.20013 -12.925,3.01692 l -5.70413,-0.16603 -1.58554,2.62138 c -2.5062668,4.14363 -2.6550198,5.16183 -0.82128,5.62207 1.89362,0.47527 12.52502,-0.62959 18.48773,-1.92132 l 4.36581,-0.94578 1.13117,1.55283 c 0.62214,0.85407 1.46406,1.55285 1.87094,1.55285 1.11164,0 2.21665,2.81957 1.5712,4.00912 -2.01086,3.70596 -8.20223,6.19211 -16.9453,6.80439 -2.20884,0.15468 -5.87129,0.42218 -8.13877,0.59443 -2.26749,0.17225 -5.3149398,0.0638 -6.7721198,-0.24104 z"
           style="fill:#ff0000;stroke-width:0.58895707"
           inkscape:connector-curvature="0"
           sodipodi:nodetypes="cscssccccsccsscsscccccsscsscccsccsc"
           inkscape:export-xdpi="96"
           inkscape:export-ydpi="96" />
        <path
           d="m 106.37324,364.76578 c 1.45767,-0.75379 4.45102,-2.24518 6.65188,-3.31421 4.06781,-1.97587 7.48309,-5.11766 7.48309,-6.88384 0,-1.42007 -6.18698,-6.90512 -9.35501,-8.29367 -5.06146,-2.21842 -9.53246,-3.80297 -9.84597,-3.48946 -0.17161,0.17161 0.008,1.46515 0.39874,2.87454 0.82615,2.97851 1.03816,12.24379 0.39219,17.1392 -0.52682,3.99245 -0.0581,4.20818 4.27508,1.96744 z m -12.813179,15.83508 c -3.59338,-2.54659 -4.16031,-8.23584 -1.6713,-16.77184 0.8973,-3.0773 1.86434,-6.5227 2.14897,-7.65644 0.4703,-1.87334 0.1512,-6.38187 -0.99002,-13.98773 -0.31748,-2.1159 -0.21969,-2.50307 0.63221,-2.50307 0.84401,0 0.92881,-0.31104 0.52185,-1.91411 -0.56449,-2.22357 -0.52658,-6.78662 0.0613,-7.37446 0.8634,-0.86341 16.624509,5.63168 21.055239,8.67677 8.20291,5.6376 12.55848,11.2584 13.25024,17.09927 0.48527,4.09733 -0.0881,5.6295 -3.4281,9.16108 -4.22501,4.46733 -9.23116,7.51507 -19.50877,11.87691 -11.068719,4.69758 -10.469379,4.52909 -12.071589,3.39362 z"
           style="fill:#ff0000;stroke-width:0.58895707"
           id="path4721"
           inkscape:connector-curvature="0"
           sodipodi:nodetypes="csscscsccccsscccccscc"
           inkscape:export-xdpi="96"
           inkscape:export-ydpi="96" />
        <path
           id="path4719"
           d="m 167.30781,380.67213 c -1.12137,-0.48851 -2.32734,-1.7936 -3.23046,-3.49601 -1.42777,-2.69137 -1.43228,-2.75039 -0.48713,-6.37813 l 0.95397,-3.66163 -1.67658,-1.67659 c -1.88754,-1.88754 -2.74101,-5.17195 -1.93913,-7.46236 0.29468,-0.8417 1.50234,-2.05072 2.68369,-2.68673 1.89903,-1.02238 2.32408,-1.06209 3.66833,-0.34267 0.83623,0.44754 1.65981,0.67431 1.83017,0.50395 0.17037,-0.17037 0.81752,-1.73887 1.43812,-3.48556 l 1.12836,-3.17579 -1.58977,-0.77582 c -3.0981,-1.51192 -5.29739,-6.94098 -3.7786,-9.32767 0.37991,-0.597 8.52484,-3.39504 18.39575,-6.31951 5.32002,-1.57617 12.21867,-2.71834 16.39537,-2.71448 3.87027,0.004 3.96571,0.0424 7.01567,2.85295 2.16734,1.99722 3.09203,3.29575 3.09203,4.3421 0,2.01656 -1.86028,2.64986 -8.83436,3.00751 -5.94227,0.30475 -15.65681,2.30568 -17.40686,3.58534 -1.14108,0.83438 -4.49531,10.28899 -3.95843,11.15768 0.18482,0.29904 2.16636,0.35654 4.51601,0.13104 11.70054,-1.12289 11.54867,-1.11874 11.54867,-0.3154 0,0.42838 0.5852,1.40179 1.30045,2.16314 l 1.30045,1.38427 -1.13799,2.11312 c -0.62589,1.16221 -1.67489,2.44481 -2.33112,2.85022 -0.65623,0.40541 -5.42947,1.44181 -10.6072,2.3031 -5.17773,0.86129 -9.59684,1.75567 -9.82025,1.98751 -0.98111,1.01813 -2.85102,7.11198 -2.85129,9.29207 -1.9e-4,1.59285 -0.40149,2.82265 -1.20115,3.68098 -1.37916,1.48036 -1.94573,1.5398 -4.41672,0.46337 z"
           style="fill:#ff0000;stroke-width:0.58895707"
           inkscape:connector-curvature="0"
           sodipodi:nodetypes="ccccccccsscccsccsccccsscssssccc"
           inkscape:export-xdpi="96"
           inkscape:export-ydpi="96" />
        <path
           d="m 224.40124,368.86312 c 5.75405,-0.93399 12.04099,-3.70841 13.98908,-6.17337 1.43511,-1.81589 1.07432,-3.6414 -1.67776,-8.48885 -1.13145,-1.99288 -2.42002,-4.28599 -2.86357,-5.09581 -0.50091,-0.91465 -1.20506,-1.3923 -1.85886,-1.26097 -0.57889,0.11629 -1.85934,0.25251 -2.84555,0.30271 -4.84011,0.24641 -16.71819,12.93404 -16.96314,18.11932 -0.16407,3.47292 2.86168,4.11596 12.2198,2.59697 z m -10.24886,12.08535 c -2.10552,-0.20015 -4.62331,-0.79842 -5.59509,-1.32947 -2.23611,-1.22199 -5.18234,-4.33662 -6.41259,-6.77914 -1.84807,-3.66913 -0.88543,-11.11583 2.21098,-17.10365 1.67853,-3.24591 6.8294,-9.19633 11.74739,-13.57087 2.65225,-2.3592 6.23405,-5.53957 7.95946,-7.06749 1.72541,-1.52792 3.84789,-3.08396 4.7166,-3.45786 0.86871,-0.3739 2.06035,-1.21121 2.64813,-1.86068 0.8812,-0.97373 1.39371,-1.08765 2.9217,-0.64942 1.01919,0.29229 2.42815,1.26211 3.13113,2.15516 0.70292,0.89305 1.97,2.36621 2.81568,3.27369 1.74656,1.87419 1.88066,2.66185 0.72295,4.24515 -0.45892,0.62759 -0.625,1.51263 -0.38035,2.02668 0.23888,0.50191 1.81275,3.7942 3.49746,7.31619 7.55385,15.79196 7.48276,21.0735 -0.35096,26.08469 -1.84962,1.18317 -4.48867,2.49003 -5.86465,2.90413 -1.37598,0.41411 -3.07336,1.05884 -3.77198,1.43272 -1.70933,0.9148 -11.98922,2.95259 -14.31048,2.83676 -1.02143,-0.0509 -3.57986,-0.25643 -5.68538,-0.45659 z"
           style="fill:#ff0000;stroke-width:0.58895707"
           id="path4715"
           inkscape:connector-curvature="0"
           sodipodi:nodetypes="sccccccsccsccsscccccccccccc"
           inkscape:export-xdpi="96"
           inkscape:export-ydpi="96" />
        <path
           id="path4713"
           d="m 257.01102,380.17258 c -0.49466,-0.76254 -0.9117,-3.01301 -0.98226,-5.30062 l -0.12268,-3.97546 h 1.96877 c 7.23586,0 20.86757,-7.28716 20.34952,-10.87836 -0.2357,-1.63414 -6.70775,-4.15783 -11.96943,-4.66735 -6.26756,-0.60692 -9.21435,-1.44031 -11.37618,-3.2173 -1.85256,-1.52279 -1.973,-1.84533 -1.973,-5.28337 0,-6.44589 1.88755,-7.94176 16.01963,-12.69546 11.04041,-3.71373 16.35392,-4.74138 21.64953,-4.18712 4.12847,0.4321 4.58656,0.75142 6.64084,4.62897 0.89728,1.69367 1.74927,2.62689 2.23015,2.44292 6.46545,-2.47333 19.11525,-6.25053 22.7325,-6.78789 5.18748,-0.77061 10.50164,-0.3506 11.78356,0.93132 1.15294,1.15297 5.04931,7.62611 5.04931,8.38862 0,0.34047 -0.72884,1.10227 -1.61963,1.69289 -1.42546,0.94511 -2.50219,1.03498 -8.9816,0.74965 -5.22876,-0.23025 -8.30058,-0.0906 -10.60123,0.48181 -1.78159,0.44331 -4.03435,0.99623 -5.00613,1.22871 -0.97178,0.23249 -1.75121,0.67687 -1.73201,0.98752 0.0194,0.31065 1.7419,1.44706 3.82823,2.52538 4.70423,2.43135 5.68844,3.30375 6.16261,5.46246 0.20601,0.93819 0.55238,1.70628 0.76959,1.70686 0.2172,5.8e-4 1.12373,1.15475 2.01452,2.56482 3.21701,5.09232 1.75392,10.94193 -4.06745,16.26235 -5.32623,4.86788 -13.66575,8.2638 -20.29381,8.2638 -1.79084,0 -2.47262,-0.32159 -3.27378,-1.54432 -1.2245,-1.86882 -1.81328,-8.12513 -0.82236,-8.73758 0.37375,-0.23097 2.15234,-0.50981 3.95249,-0.61967 6.64562,-0.40555 19.28693,-8.07074 18.15873,-11.01074 -0.52435,-1.36651 -8.54707,-3.92591 -14.41373,-4.59826 -4.05915,-0.46521 -6.27975,-1.04286 -8.09233,-2.10509 -2.86203,-1.67726 -3.36883,-2.98363 -2.93424,-7.56361 l 0.30031,-3.16508 -5.0913,-0.21552 c -2.96817,-0.12565 -6.56481,0.11667 -8.62498,0.5811 -1.94356,0.43813 -4.26258,0.9367 -5.15337,1.10791 -0.8908,0.17122 -1.61964,0.68532 -1.61964,1.14247 0,0.45714 0.72884,1.0975 1.61964,1.42302 1.95486,0.71435 2.16753,0.81699 5.15337,2.48712 1.53094,0.85632 2.56208,1.95159 2.94479,3.128 0.32392,0.99565 1.31743,2.76454 2.20788,3.93088 3.25693,4.26625 3.59234,7.44372 1.27644,12.09116 -2.67663,5.37131 -10.32123,10.70571 -18.33234,12.79234 -5.13035,1.3363 -8.67681,1.17252 -9.72893,-0.44928 z"
           style="fill:#ff0000;stroke-width:0.58895707"
           inkscape:connector-curvature="0"
           sodipodi:nodetypes="cccscscsssccccscccccccscsscccccccccccsccccccc"
           inkscape:export-xdpi="96"
           inkscape:export-ydpi="96" />
        <path
           id="path4711"
           d="m 339.13443,380.46705 c -1.24276,-1.08071 -3.38132,-6.74688 -3.98871,-10.56819 -0.54567,-3.43314 0.722,-14.77259 2.09421,-18.73242 0.67347,-1.94356 1.484,-5.35719 1.80115,-7.58587 0.31715,-2.22866 0.94916,-4.87897 1.40449,-5.88957 0.45532,-1.01059 0.99563,-2.42213 1.20064,-3.13673 0.50662,-1.76577 3.6255,-4.29581 5.29561,-4.29581 1.10912,0 1.43653,0.40968 1.76528,2.20859 0.22198,1.21473 0.74262,2.73865 1.15701,3.38651 0.41439,0.64785 0.94015,2.43063 1.16837,3.96173 0.22822,1.5311 0.62583,2.91416 0.88361,3.07346 0.25773,0.15931 -0.39024,2.75482 -1.44,5.76781 -3.10468,8.91085 -4.00767,14.43437 -3.63115,22.21102 0.36674,7.57486 0.0762,8.5714 -2.85603,9.79657 -2.59589,1.08464 -3.41896,1.05123 -4.85448,-0.1971 z"
           style="fill:#ff0000;stroke-width:0.58895707"
           inkscape:connector-curvature="0"
           sodipodi:nodetypes="ccccccsccscccsc"
           inkscape:export-xdpi="96"
           inkscape:export-ydpi="96" />
        <path
           id="path4709"
           d="m 363.41943,380.58237 c -2.33999,-1.1548 -5.10438,-6.53691 -5.44073,-10.59276 -0.31185,-3.76093 1.08244,-8.98577 6.04488,-22.65139 2.05846,-5.66871 4.18748,-11.84816 4.73115,-13.73211 0.54366,-1.88395 1.33823,-3.55957 1.76569,-3.7236 0.42747,-0.16403 1.58306,0.11849 2.56797,0.62782 0.98491,0.50928 2.35436,0.92601 3.04326,0.92601 1.53282,0 4.69493,3.0421 4.69735,4.51911 0,0.97879 -2.55873,8.21995 -5.27417,14.91647 -2.42374,5.97726 -4.71095,12.81689 -5.09354,15.23178 l -0.40697,2.5692 2.58888,-0.30911 c 1.42392,-0.17 4.97421,-0.6211 7.88955,-1.00245 2.91534,-0.38134 6.3734,-0.57563 7.68459,-0.43175 3.24021,0.35555 10.86579,3.93914 10.87404,5.11021 0.006,0.50491 0.16196,1.85755 0.35196,3.00588 0.50903,3.07642 -1.16419,3.65131 -10.37071,3.56328 -6.18988,-0.0592 -8.20588,0.164 -12.66258,1.40185 -6.0255,1.67359 -10.37018,1.86473 -12.99062,0.57152 z"
           style="fill:#ff0000;stroke-width:0.58895707"
           inkscape:connector-curvature="0"
           sodipodi:nodetypes="ccccccsccccccccccscc"
           inkscape:export-xdpi="96"
           inkscape:export-ydpi="96" />
        <path
           id="path4529-6"
           d="m 45.002221,379.28914 c -2.03907,-2.1759 -3.93576,-6.07431 -4.54691,-9.34562 -0.49223,-2.6348 -0.34645,-3.00614 7.97207,-20.30697 4.66041,-9.6927 8.47347,-17.86981 8.47347,-18.17135 0,-2.98935 9.20085,2.61779 10.89081,6.63703 0.56001,1.33188 0.53889,2.43654 -0.10159,5.31156 -0.44476,1.99647 -1.09032,4.18701 -1.43459,4.86786 -0.69956,1.38352 -0.50581,14.58443 0.22474,15.31239 0.69142,0.68896 4.49892,-3.27297 6.00018,-6.24355 1.87954,-3.7191 2.5681,-6.06047 3.83536,-13.04176 1.10077,-6.06408 3.8861,-14.63922 4.75503,-14.63922 0.25015,0 1.56509,0.9276 2.92208,2.06135 1.357,1.13374 2.77349,2.06339 3.14775,2.06588 0.37426,0.002 1.29274,1.07658 2.04107,2.38685 1.20756,2.11437 1.28298,2.62723 0.67055,4.55988 -0.37951,1.19767 -1.02994,2.72168 -1.44538,3.3867 -0.79421,1.27133 -2.31019,8.32503 -2.96789,13.80928 -0.50988,4.2517 -2.25091,9.41016 -4.09133,12.12218 -0.81261,1.19744 -1.47746,2.40521 -1.47746,2.68393 0,0.27873 -0.39755,0.50677 -0.88344,0.50677 -0.48589,0 -0.88395,0.4638 -0.88457,1.03068 -0.002,1.45695 -5.20885,4.85889 -7.43735,4.85889 -3.18605,0 -9.09528,-5.66714 -11.51467,-11.04294 -0.61958,-1.37669 -1.35632,-2.50307 -1.63721,-2.50307 -0.79739,0 -4.47177,7.04532 -5.32651,10.21313 -0.42312,1.56814 -1.19191,3.01097 -1.70842,3.2063 -0.51652,0.19534 -1.28934,0.70127 -1.71739,1.1243 -1.16382,1.1502 -2.07723,0.94351 -3.7584,-0.85048 z"
           style="fill:#ff0000;stroke-width:0.58895707"
           inkscape:connector-curvature="0"
           sodipodi:nodetypes="ccsscsccssscccccccsscscscccc"
           inkscape:export-xdpi="96"
           inkscape:export-ydpi="96" />
      </g>
    </g>
  </g>
</svg>
